<svg id="visual" viewBox="0 0 900 600" width="900" height="600" xmlns="http://www.w3.org/2000/svg" xmlns:xlink="http://www.w3.org/1999/xlink" version="1.1"><path d="M0 221L12.5 225.3C25 229.7 50 238.3 75 236.2C100 234 125 221 150 206.5C175 192 200 176 225 170.7C250 165.3 275 170.7 300 172.5C325 174.3 350 172.7 375 184.8C400 197 425 223 450 222.8C475 222.7 500 196.3 525 184.7C550 173 575 176 600 179.2C625 182.3 650 185.7 675 183.7C700 181.7 725 174.3 750 170.7C775 167 800 167 825 167.3C850 167.7 875 168.3 887.5 168.7L900 169L900 0L887.5 0C875 0 850 0 825 0C800 0 775 0 750 0C725 0 700 0 675 0C650 0 625 0 600 0C575 0 550 0 525 0C500 0 475 0 450 0C425 0 400 0 375 0C350 0 325 0 300 0C275 0 250 0 225 0C200 0 175 0 150 0C125 0 100 0 75 0C50 0 25 0 12.5 0L0 0Z" fill="#78b48b"></path><path d="M0 190L12.5 185.2C25 180.3 50 170.7 75 172.3C100 174 125 187 150 191.5C175 196 200 192 225 189.8C250 187.7 275 187.3 300 179.2C325 171 350 155 375 152.5C400 150 425 161 450 173.5C475 186 500 200 525 196.2C550 192.3 575 170.7 600 160.2C625 149.7 650 150.3 675 158.7C700 167 725 183 750 191.2C775 199.3 800 199.7 825 200.5C850 201.3 875 202.7 887.5 203.3L900 204L900 0L887.5 0C875 0 850 0 825 0C800 0 775 0 750 0C725 0 700 0 675 0C650 0 625 0 600 0C575 0 550 0 525 0C500 0 475 0 450 0C425 0 400 0 375 0C350 0 325 0 300 0C275 0 250 0 225 0C200 0 175 0 150 0C125 0 100 0 75 0C50 0 25 0 12.5 0L0 0Z" fill="#5aa38d"></path><path d="M0 179L12.5 178.3C25 177.7 50 176.3 75 166.7C100 157 125 139 150 136C175 133 200 145 225 147.8C250 150.7 275 144.3 300 140C325 135.7 350 133.3 375 137.5C400 141.7 425 152.3 450 156.8C475 161.3 500 159.7 525 156C550 152.3 575 146.7 600 148.8C625 151 650 161 675 160.8C700 160.7 725 150.3 750 151.3C775 152.3 800 164.7 825 163.2C850 161.7 875 146.3 887.5 138.7L900 131L900 0L887.5 0C875 0 850 0 825 0C800 0 775 0 750 0C725 0 700 0 675 0C650 0 625 0 600 0C575 0 550 0 525 0C500 0 475 0 450 0C425 0 400 0 375 0C350 0 325 0 300 0C275 0 250 0 225 0C200 0 175 0 150 0C125 0 100 0 75 0C50 0 25 0 12.5 0L0 0Z" fill="#45928d"></path><path d="M0 135L12.5 128.5C25 122 50 109 75 104.3C100 99.7 125 103.3 150 108C175 112.7 200 118.3 225 115.8C250 113.3 275 102.7 300 98.7C325 94.7 350 97.3 375 106C400 114.7 425 129.3 450 130.2C475 131 500 118 525 112C550 106 575 107 600 113.8C625 120.7 650 133.3 675 133.5C700 133.7 725 121.3 750 114.3C775 107.3 800 105.7 825 110.8C850 116 875 128 887.5 134L900 140L900 0L887.5 0C875 0 850 0 825 0C800 0 775 0 750 0C725 0 700 0 675 0C650 0 625 0 600 0C575 0 550 0 525 0C500 0 475 0 450 0C425 0 400 0 375 0C350 0 325 0 300 0C275 0 250 0 225 0C200 0 175 0 150 0C125 0 100 0 75 0C50 0 25 0 12.5 0L0 0Z" fill="#3a7f87"></path><path d="M0 113L12.5 105.8C25 98.7 50 84.3 75 80.7C100 77 125 84 150 84C175 84 200 77 225 77.2C250 77.3 275 84.7 300 91.3C325 98 350 104 375 104.5C400 105 425 100 450 92.8C475 85.7 500 76.3 525 76.7C550 77 575 87 600 87.2C625 87.3 650 77.7 675 74C700 70.3 725 72.7 750 77.8C775 83 800 91 825 98.5C850 106 875 113 887.5 116.5L900 120L900 0L887.5 0C875 0 850 0 825 0C800 0 775 0 750 0C725 0 700 0 675 0C650 0 625 0 600 0C575 0 550 0 525 0C500 0 475 0 450 0C425 0 400 0 375 0C350 0 325 0 300 0C275 0 250 0 225 0C200 0 175 0 150 0C125 0 100 0 75 0C50 0 25 0 12.5 0L0 0Z" fill="#396c7c"></path><path d="M0 62L12.5 66C25 70 50 78 75 82.2C100 86.3 125 86.7 150 82C175 77.3 200 67.7 225 66.3C250 65 275 72 300 76.2C325 80.3 350 81.7 375 77.5C400 73.3 425 63.7 450 57.7C475 51.7 500 49.3 525 50.7C550 52 575 57 600 59C625 61 650 60 675 62.5C700 65 725 71 750 69.2C775 67.3 800 57.7 825 59.3C850 61 875 74 887.5 80.5L900 87L900 0L887.5 0C875 0 850 0 825 0C800 0 775 0 750 0C725 0 700 0 675 0C650 0 625 0 600 0C575 0 550 0 525 0C500 0 475 0 450 0C425 0 400 0 375 0C350 0 325 0 300 0C275 0 250 0 225 0C200 0 175 0 150 0C125 0 100 0 75 0C50 0 25 0 12.5 0L0 0Z" fill="#3b5a6d"></path><path d="M0 44L12.5 42C25 40 50 36 75 36C100 36 125 40 150 40.7C175 41.3 200 38.7 225 36.7C250 34.7 275 33.3 300 31.2C325 29 350 26 375 26.7C400 27.3 425 31.7 450 31.5C475 31.3 500 26.7 525 25C550 23.3 575 24.7 600 27C625 29.3 650 32.7 675 33C700 33.3 725 30.7 750 31.5C775 32.3 800 36.7 825 39.5C850 42.3 875 43.7 887.5 44.3L900 45L900 0L887.5 0C875 0 850 0 825 0C800 0 775 0 750 0C725 0 700 0 675 0C650 0 625 0 600 0C575 0 550 0 525 0C500 0 475 0 450 0C425 0 400 0 375 0C350 0 325 0 300 0C275 0 250 0 225 0C200 0 175 0 150 0C125 0 100 0 75 0C50 0 25 0 12.5 0L0 0Z" fill="#3b485a"></path></svg>