<svg id="visual" viewBox="0 0 900 600" width="900" height="600" xmlns="http://www.w3.org/2000/svg" xmlns:xlink="http://www.w3.org/1999/xlink" version="1.1"><rect x="0" y="0" width="900" height="600" fill="#181818"></rect><path d="M0 217L21.5 208.8C43 200.7 86 184.3 128.8 184.2C171.7 184 214.3 200 257.2 198C300 196 343 176 385.8 173.2C428.7 170.3 471.3 184.7 514.2 196.2C557 207.7 600 216.3 642.8 216.8C685.7 217.3 728.3 209.7 771.2 211.5C814 213.3 857 224.7 878.5 230.3L900 236L900 0L878.5 0C857 0 814 0 771.2 0C728.3 0 685.7 0 642.8 0C600 0 557 0 514.2 0C471.3 0 428.7 0 385.8 0C343 0 300 0 257.2 0C214.3 0 171.7 0 128.8 0C86 0 43 0 21.5 0L0 0Z" fill="#38485c"></path><path d="M0 185L21.5 175.5C43 166 86 147 128.8 137.2C171.7 127.3 214.3 126.7 257.2 126.8C300 127 343 128 385.8 129C428.7 130 471.3 131 514.2 136.7C557 142.3 600 152.7 642.8 159.3C685.7 166 728.3 169 771.2 165C814 161 857 150 878.5 144.5L900 139L900 0L878.5 0C857 0 814 0 771.2 0C728.3 0 685.7 0 642.8 0C600 0 557 0 514.2 0C471.3 0 428.7 0 385.8 0C343 0 300 0 257.2 0C214.3 0 171.7 0 128.8 0C86 0 43 0 21.5 0L0 0Z" fill="#2f6379"></path><path d="M0 142L21.5 137C43 132 86 122 128.8 123.8C171.7 125.7 214.3 139.3 257.2 135.5C300 131.7 343 110.3 385.8 111C428.7 111.7 471.3 134.3 514.2 141.5C557 148.7 600 140.3 642.8 138.3C685.7 136.3 728.3 140.7 771.2 144.7C814 148.7 857 152.3 878.5 154.2L900 156L900 0L878.5 0C857 0 814 0 771.2 0C728.3 0 685.7 0 642.8 0C600 0 557 0 514.2 0C471.3 0 428.7 0 385.8 0C343 0 300 0 257.2 0C214.3 0 171.7 0 128.8 0C86 0 43 0 21.5 0L0 0Z" fill="#20808b"></path><path d="M0 115L21.5 112.8C43 110.7 86 106.3 128.8 99.7C171.7 93 214.3 84 257.2 80.2C300 76.3 343 77.7 385.8 76.8C428.7 76 471.3 73 514.2 71.3C557 69.7 600 69.3 642.8 73.7C685.7 78 728.3 87 771.2 92.2C814 97.3 857 98.7 878.5 99.3L900 100L900 0L878.5 0C857 0 814 0 771.2 0C728.3 0 685.7 0 642.8 0C600 0 557 0 514.2 0C471.3 0 428.7 0 385.8 0C343 0 300 0 257.2 0C214.3 0 171.7 0 128.8 0C86 0 43 0 21.5 0L0 0Z" fill="#329c8f"></path><path d="M0 60L21.5 57.8C43 55.7 86 51.3 128.8 51.2C171.7 51 214.3 55 257.2 55.8C300 56.7 343 54.3 385.8 55.3C428.7 56.3 471.3 60.7 514.2 57.8C557 55 600 45 642.8 38.5C685.7 32 728.3 29 771.2 30.3C814 31.7 857 37.3 878.5 40.2L900 43L900 0L878.5 0C857 0 814 0 771.2 0C728.3 0 685.7 0 642.8 0C600 0 557 0 514.2 0C471.3 0 428.7 0 385.8 0C343 0 300 0 257.2 0C214.3 0 171.7 0 128.8 0C86 0 43 0 21.5 0L0 0Z" fill="#64b687"></path></svg>