<svg id="visual" viewBox="0 0 900 600" width="900" height="600" xmlns="http://www.w3.org/2000/svg" xmlns:xlink="http://www.w3.org/1999/xlink" version="1.1"><path d="M0 380L12.5 379C25 378 50 376 75 377C100 378 125 382 150 387.8C175 393.7 200 401.3 225 409.8C250 418.3 275 427.7 300 417.8C325 408 350 379 375 379.2C400 379.3 425 408.7 450 418C475 427.3 500 416.7 525 404.5C550 392.3 575 378.7 600 379C625 379.3 650 393.7 675 393.7C700 393.7 725 379.3 750 377C775 374.7 800 384.3 825 390.5C850 396.7 875 399.3 887.5 400.7L900 402L900 601L887.5 601C875 601 850 601 825 601C800 601 775 601 750 601C725 601 700 601 675 601C650 601 625 601 600 601C575 601 550 601 525 601C500 601 475 601 450 601C425 601 400 601 375 601C350 601 325 601 300 601C275 601 250 601 225 601C200 601 175 601 150 601C125 601 100 601 75 601C50 601 25 601 12.5 601L0 601Z" fill="#64b687"></path><path d="M0 379L12.5 385.8C25 392.7 50 406.3 75 420.2C100 434 125 448 150 445.5C175 443 200 424 225 423.5C250 423 275 441 300 440.2C325 439.3 350 419.7 375 411.7C400 403.7 425 407.3 450 410.8C475 414.3 500 417.7 525 416.2C550 414.7 575 408.3 600 403.7C625 399 650 396 675 401.2C700 406.3 725 419.7 750 428.8C775 438 800 443 825 442.2C850 441.3 875 434.7 887.5 431.3L900 428L900 601L887.5 601C875 601 850 601 825 601C800 601 775 601 750 601C725 601 700 601 675 601C650 601 625 601 600 601C575 601 550 601 525 601C500 601 475 601 450 601C425 601 400 601 375 601C350 601 325 601 300 601C275 601 250 601 225 601C200 601 175 601 150 601C125 601 100 601 75 601C50 601 25 601 12.5 601L0 601Z" fill="#41a58d"></path><path d="M0 484L12.5 473.3C25 462.7 50 441.3 75 429.8C100 418.3 125 416.7 150 415.8C175 415 200 415 225 423.2C250 431.3 275 447.7 300 453.7C325 459.7 350 455.3 375 454C400 452.7 425 454.3 450 450.8C475 447.3 500 438.7 525 434.2C550 429.7 575 429.3 600 429.3C625 429.3 650 429.7 675 428.3C700 427 725 424 750 431C775 438 800 455 825 458.3C850 461.7 875 451.3 887.5 446.2L900 441L900 601L887.5 601C875 601 850 601 825 601C800 601 775 601 750 601C725 601 700 601 675 601C650 601 625 601 600 601C575 601 550 601 525 601C500 601 475 601 450 601C425 601 400 601 375 601C350 601 325 601 300 601C275 601 250 601 225 601C200 601 175 601 150 601C125 601 100 601 75 601C50 601 25 601 12.5 601L0 601Z" fill="#27938f"></path><path d="M0 507L12.5 501.3C25 495.7 50 484.3 75 479C100 473.7 125 474.3 150 470.8C175 467.3 200 459.7 225 460.8C250 462 275 472 300 478.3C325 484.7 350 487.3 375 484.2C400 481 425 472 450 464.7C475 457.3 500 451.7 525 450C550 448.3 575 450.7 600 456.2C625 461.7 650 470.3 675 471.8C700 473.3 725 467.7 750 462.5C775 457.3 800 452.7 825 458C850 463.3 875 478.7 887.5 486.3L900 494L900 601L887.5 601C875 601 850 601 825 601C800 601 775 601 750 601C725 601 700 601 675 601C650 601 625 601 600 601C575 601 550 601 525 601C500 601 475 601 450 601C425 601 400 601 375 601C350 601 325 601 300 601C275 601 250 601 225 601C200 601 175 601 150 601C125 601 100 601 75 601C50 601 25 601 12.5 601L0 601Z" fill="#20808b"></path><path d="M0 516L12.5 517.3C25 518.7 50 521.3 75 519C100 516.7 125 509.3 150 504.8C175 500.3 200 498.7 225 496C250 493.3 275 489.7 300 494C325 498.3 350 510.7 375 517.5C400 524.3 425 525.7 450 527.3C475 529 500 531 525 522.8C550 514.7 575 496.3 600 488.8C625 481.3 650 484.7 675 489.8C700 495 725 502 750 509.5C775 517 800 525 825 528.5C850 532 875 531 887.5 530.5L900 530L900 601L887.5 601C875 601 850 601 825 601C800 601 775 601 750 601C725 601 700 601 675 601C650 601 625 601 600 601C575 601 550 601 525 601C500 601 475 601 450 601C425 601 400 601 375 601C350 601 325 601 300 601C275 601 250 601 225 601C200 601 175 601 150 601C125 601 100 601 75 601C50 601 25 601 12.5 601L0 601Z" fill="#2a6d80"></path><path d="M0 538L12.5 536.8C25 535.7 50 533.3 75 533.7C100 534 125 537 150 534.2C175 531.3 200 522.7 225 524.5C250 526.3 275 538.7 300 544C325 549.3 350 547.7 375 546.7C400 545.7 425 545.3 450 541.5C475 537.7 500 530.3 525 529.3C550 528.3 575 533.7 600 538.7C625 543.7 650 548.3 675 544.3C700 540.3 725 527.7 750 526.8C775 526 800 537 825 538.2C850 539.3 875 530.7 887.5 526.3L900 522L900 601L887.5 601C875 601 850 601 825 601C800 601 775 601 750 601C725 601 700 601 675 601C650 601 625 601 600 601C575 601 550 601 525 601C500 601 475 601 450 601C425 601 400 601 375 601C350 601 325 601 300 601C275 601 250 601 225 601C200 601 175 601 150 601C125 601 100 601 75 601C50 601 25 601 12.5 601L0 601Z" fill="#345a70"></path><path d="M0 566L12.5 562.2C25 558.3 50 550.7 75 548.2C100 545.7 125 548.3 150 553.7C175 559 200 567 225 569.7C250 572.3 275 569.7 300 569.7C325 569.7 350 572.3 375 569.5C400 566.7 425 558.3 450 553.8C475 549.3 500 548.7 525 553.7C550 558.7 575 569.3 600 572.7C625 576 650 572 675 568.8C700 565.7 725 563.3 750 560.8C775 558.3 800 555.7 825 558.5C850 561.3 875 569.7 887.5 573.8L900 578L900 601L887.5 601C875 601 850 601 825 601C800 601 775 601 750 601C725 601 700 601 675 601C650 601 625 601 600 601C575 601 550 601 525 601C500 601 475 601 450 601C425 601 400 601 375 601C350 601 325 601 300 601C275 601 250 601 225 601C200 601 175 601 150 601C125 601 100 601 75 601C50 601 25 601 12.5 601L0 601Z" fill="#38485c"></path></svg>